<?xml version="1.0" encoding="UTF-8"?><svg id="Calque_1" xmlns="http://www.w3.org/2000/svg" viewBox="0 0 314.81 383.25"><defs><style>.cls-1{fill:#fff;}</style></defs><path class="cls-1" d="m205.61,0c2.33,1.62,4.66,3.24,6.99,4.86,5.51,3.84,10.99,7.73,16.55,11.5,2.37,1.61,4.89,2.99,7.36,4.43,20.46,11.97,23.45,36.28,12.06,55.15-1.4,2.32-.87,3.84-.28,6.26,1.39,5.65,5.71,7.42,9.88,10.11,9.21,5.92,18.55,11.81,26.95,18.79,26.64,22.16,21.72,61.78-9.26,77.32-.66.33-1.3.68-2.24,1.17,3.39,10.84,6.76,21.62,10.14,32.4,3.28,10.46,6.61,20.9,9.84,31.37,1.46,4.74-.65,8.51-4.74,8.56-3.66.04-5.13-2.43-6.1-5.52-5.48-17.6-11.01-35.18-16.52-52.76-4.43-14.13-8.87-28.25-13.41-42.73-5.55,1.51-10.89,2.96-16.49,4.49,3.27,14.15,6.41,27.96,9.66,41.75,7.67,32.61,15.26,65.25,23.14,97.81,5.59,23.12,16.36,44.07,28.31,64.43.68,1.16,2.43,1.69,3.67,2.51.82-1.49,2.34-2.97,2.36-4.47.28-27.6-3.1-54.71-11.32-81.13-.22-.71-.42-1.43-.63-2.15-1.19-4.22.07-7.13,3.49-8.1,3.29-.93,6.01.72,7.13,4.76,2.35,8.52,4.74,17.04,6.72,25.65,4.66,20.28,5.97,40.92,5.93,61.67-.02,7.36-4,12.72-10.57,14.56-6.42,1.8-12.83-.79-16.34-7.35-6.46-12.07-12.57-24.33-18.82-36.51-.5-.98-.97-1.97-1.26-2.57-4.01,5.24-7.66,10.77-12.07,15.61-9.94,10.92-23.04,16.49-37.05,19.77-10.53,2.47-21.26,4.09-31.93,5.91-3.89.66-6.71-1.51-7.09-4.87-.36-3.16,1.74-5.69,5.62-6.11,13.93-1.5,27.58-4.23,40.8-8.89,17.39-6.12,29.08-17.87,34.43-35.63.51-1.69.61-3.73.19-5.44-3.55-14.38-7.17-28.75-11.04-43.05-.7-2.58-2.12-5.54-4.15-7.07-5.14-3.87-10.87-6.93-16.25-10.49-6.51-4.31-13.61-8.06-19.19-13.37-11.85-11.3-11.81-26.21,0-37.62,5.2-5.02,11.81-8.61,17.93-12.62,1.63-1.07,2.77-1.74,2.21-3.95-1.63-6.51-3.1-13.07-4.68-19.8-1-.09-2.07.07-2.91-.3-2.68-1.16-5.77-1.98-7.8-3.89-4.93-4.64-6.74-18.25-3.94-24.48.44-.98.37-2.39.08-3.48-3.09-11.68-6.27-23.33-9.42-34.99-.36-1.32-1.2-2.72-1-3.95.82-5.08-2.22-7.26-6.11-9.13-1.66-.8-3.35-1.88-4.54-3.25-3.18-3.68-7.27-4.18-11.76-4.34-42.07-1.49-80.21,9.63-113.24,36.09-29.58,23.7-47.92,54.28-52.18,92.24-4.35,38.77,7.2,73.06,32.53,102.43,27.83,32.26,63.71,49.54,105.76,54.53,2.1.25,4.21.48,6.33.63,5.01.36,7.43,2.41,7.19,6.17-.24,3.7-2.85,5.43-8.02,5.03-18.13-1.39-35.75-5.18-52.66-11.92-37.17-14.82-67.3-38.38-85.84-74.21-27.04-52.28-23.58-103.71,10.02-151.89,27.04-38.78,65.76-60.16,112.02-67.91,10.88-1.82,22.08-1.7,33.14-2.44,1.32-.09,2.66-.01,3.36-.01-.69-6.02-1.87-11.78-1.86-17.53,0-7.01,3.55-13.08,6.59-19.26,4.11-8.35,7.94-16.85,11.61-25.41,1.55-3.61,4.27-5.64,7.48-7.36,1.75,0,3.49,0,5.24,0Zm-2.38,12.83c-1.09,2.81-2.1,6.17-3.64,9.27-3.43,6.92-7.18,13.67-10.68,20.55-2.41,4.74-3.8,9.72-2.94,15.15,1.94,12.22,9.8,19.47,20.43,24.34.96.44,2.42.09,3.57-.21,7.95-2.08,15.89-4.2,23.8-6.44,1.19-.34,2.5-1.19,3.21-2.19,9.64-13.59,11.28-33.44-8.53-44.42-8.68-4.81-16.78-10.64-25.23-16.06Zm51.36,90.31c1.74,6.36,3.3,11.83,4.7,17.34.74,2.93,1.65,5.34,4.59,7.13,2,1.22,3.41,3.91,4.37,6.24,1.23,2.96,1.82,6.2,2.57,9.35,1.39,5.82-.3,10.11-5.1,13.69-.74.55-1.71,1.81-1.52,2.43,1.86,6.39,3.93,12.72,5.94,19.08,14.33-5.22,23.51-22.64,20.46-38.04-1.29-6.53-4-12.39-8.71-17.06-7.88-7.8-16.92-14.11-27.3-20.15Zm-5.3,23.43c-3.51-12.96-6.9-25.44-10.26-37.93-.61-2.28-2.03-2.42-4.01-1.87-6.71,1.88-13.43,3.78-20.2,5.45-3.01.74-3.71,2.07-2.84,5.06,2.71,9.33,5.17,18.73,7.72,28.1.77,2.83,1.54,5.67,2.34,8.62,9.26-2.53,18.01-4.92,27.25-7.44Zm-16.21,74.66c-5.78,4.47-11.31,7.91-15.79,12.4-6.46,6.47-6.15,13.74-.03,20.59,1.48,1.66,3.07,3.38,4.95,4.51,7.17,4.32,14.47,8.41,22.57,13.08-3.97-17.17-7.68-33.22-11.7-50.57Zm-10.07-43.84c12.64-3.46,24.9-6.81,37.35-10.21-1.12-3.98-2.08-7.4-3.12-11.13-12.62,3.45-24.86,6.79-37.32,10.2,1.12,4.03,2.07,7.45,3.1,11.14Z"/>
<path class="cls-1" d="m98.03,229.65c.06,18.92-15.28,34.34-34.16,34.33-18.65,0-34.08-15.35-34.17-33.99-.09-18.91,15.17-34.4,34.01-34.52,18.84-.12,34.25,15.22,34.31,34.18Zm-11.22-.05c-.07-12.64-10.27-22.86-22.86-22.9-12.65-.04-23.07,10.44-23.02,23.16.04,12.54,10.37,22.86,22.9,22.91,12.7.04,23.05-10.39,22.98-23.16Z"/>
<path class="cls-1" d="m61.04,155.59c.05-16.57,13.42-29.87,30.02-29.86,16.69.01,30.1,13.58,29.97,30.32-.12,16.49-13.66,29.76-30.25,29.66-16.58-.1-29.8-13.49-29.75-30.13Zm30.02-18.64c-10.41-.02-18.74,8.25-18.79,18.64-.05,10.45,8.14,18.81,18.52,18.9,10.57.09,19.04-8.28,19.02-18.82-.02-10.37-8.37-18.7-18.75-18.72Z"/>
<path class="cls-1" d="m132.33,298.72c.07,16.23-12.76,29.24-28.99,29.43-16.1.19-29.41-12.85-29.51-28.92-.11-16.36,12.97-29.66,29.19-29.69,16.1-.03,29.25,13.05,29.31,29.18Zm-11.22.03c-.05-9.97-8.22-18.06-18.16-17.98-9.93.08-17.95,8.25-17.91,18.25.04,10.01,8.15,18,18.17,17.92,10.06-.08,17.95-8.1,17.89-18.18Z"/>
<path class="cls-1" d="m157.2,154.26c-16.11,0-29.3-13.1-29.36-29.16-.06-16.21,13.23-29.42,29.53-29.36,16.15.06,29.16,13.18,29.1,29.34-.06,16.19-13.08,29.18-29.26,29.18Zm.13-11.22c10.01-.05,18-8.16,17.9-18.19-.09-10.05-8.12-17.94-18.2-17.88-9.96.06-18.06,8.25-17.97,18.18.09,9.93,8.27,17.94,18.27,17.89Z"/>
<path class="cls-1" d="m201.41,320.89c.11,16.14-12.9,29.34-29.02,29.44-16.12.1-29.41-12.9-29.59-28.95-.18-16.09,12.83-29.4,28.91-29.57,16.45-.17,29.59,12.69,29.7,29.08Zm-29.17-17.86c-10.01-.04-18.16,7.97-18.22,17.92-.06,9.91,8.1,18.13,18.01,18.16,10.05.03,18.09-7.93,18.14-17.96.05-10.07-7.88-18.08-17.94-18.12Z"/>
</svg>