<?xml version="1.0" encoding="UTF-8"?><svg id="Calque_1" xmlns="http://www.w3.org/2000/svg" viewBox="0 0 383.35 383.2"><defs><style>.cls-1{fill:#fff;}</style></defs><path class="cls-1" d="m0,274.65c2.07-2.98,5.02-3.57,8.46-3.54,11.1.12,22.21.08,33.31.03,10.67-.04,17.04-4.88,19.82-15.18,8.66-32.1,17.26-64.22,25.91-96.33,1.94-7.2,6.22-10.05,13.54-9.13,12.95,1.62,23.35,11.67,24.08,24.72.74,13.18.32,26.43.4,39.65.03,4.24-.1,8.49.07,12.72.2,5.04,3.3,8.02,8.35,8.18,3.62.11,7.24-.03,10.85.05,4.08.09,6.5,2.28,6.46,5.69-.04,3.38-2.47,5.44-6.6,5.5-3.49.05-6.99.05-10.48,0-11.63-.17-19.73-8.14-19.83-19.83-.14-15.97,0-31.94-.06-47.9-.04-9.19-5.1-15.68-13.35-17.41-.7-.15-1.45-.08-2.4-.13-3.64,13.55-7.27,27-10.87,40.45-5.06,18.89-10.08,37.78-15.15,56.67-4.03,15-14.99,23.41-30.6,23.5-8.73.05-17.47,0-26.2,0-1.34,0-2.69,0-4.25,0v72.79c1.48,0,2.83,0,4.17,0,15.47,0,30.94.08,46.41-.03,8.9-.07,16.97,2.19,24.19,7.48,8.64,6.34,18.44,9.18,29.09,9.2,22.58.03,45.17.02,67.75,0,6.14,0,8.26-2.19,8.33-8.38.01-1.37.07-2.75-.07-4.11-.41-3.95-2.63-6.03-6.65-6.11-4.61-.09-9.23-.01-13.85-.03-5.09-.02-7.66-1.88-7.72-5.56-.06-3.76,2.44-5.65,7.52-5.66,8.86-.01,17.72.02,26.58-.01,7.7-.03,11.1-3.47,11.16-11.23,0-1,.02-2,0-2.99-.2-6.22-3.55-9.77-9.77-9.87-9.11-.14-18.22-.04-27.32-.06-1.12,0-2.27.06-3.36-.15-3.11-.59-4.89-2.46-4.76-5.71.13-3.23,2.01-5.15,5.2-5.24,5.86-.18,11.73-.1,17.59-.11,5.86-.01,11.73.07,17.59-.03,6.76-.11,10.29-3.72,10.47-10.5.03-1,.02-2,0-2.99-.15-6.97-3.68-10.6-10.7-10.67-10.6-.09-21.21-.02-31.82-.04-1.37,0-2.77.06-4.1-.21-2.63-.54-4.09-2.28-4.26-4.97-.16-2.66.99-4.69,3.55-5.5,1.51-.47,3.19-.51,4.8-.51,24.7-.03,49.41.02,74.11-.04,8.92-.02,14.61-6.73,12.78-14.81-1.27-5.61-6.25-9.27-12.83-9.28-23.33-.02-46.66,0-70-.01-1.25,0-2.5.05-3.74-.05-3.21-.26-5.58-2.57-5.46-5.5.13-3.17,1.94-5.02,5.03-5.59.73-.13,1.49-.08,2.24-.08,24.21,0,48.41-.1,72.62.03,18.04.1,29.34,18.48,21.01,34.08-4.05,7.59-10.52,11.99-19.21,12.31-8.09.29-16.2.06-24.59.06,2.89,12.28,3.77,23.84-7.63,32.3,8.3,15.77,3.86,35.16-13.93,38.69,2.2,15.52.79,25.48-14.69,29.9h-77.12c-.7-.21-1.4-.55-2.11-.62-10.27-.99-19.58-4.58-27.9-10.6-5.47-3.96-11.45-5.65-18.17-5.61-17.8.11-35.6-.01-53.4.08-3.42.02-6.34-.63-8.48-3.46v-88.34Z"/><path class="cls-1" d="m0,362.99c2.15,2.83,5.06,3.48,8.48,3.46,17.8-.1,35.6.03,53.4-.08,6.71-.04,12.7,1.65,18.17,5.61,8.32,6.02,17.63,9.62,27.9,10.6.72.07,1.41.41,2.11.62H0c0-6.74,0-13.48,0-20.21Z"/><path class="cls-1" d="m167.64,68.43c-7.97-13.98-4.88-34.85,13.65-38.48-.18-3.93-.58-7.86-.5-11.78.23-10.8,7.47-18.04,18.27-18.09,23.33-.11,46.66-.12,70,0,12.69.07,24.33,3.74,34.62,11.27,5.14,3.75,10.83,5.39,17.15,5.37,17.97-.06,35.93-.03,53.9-.02,7.13,0,8.61,1.49,8.61,8.5,0,26.2,0,52.4,0,78.59,0,6.48-1.66,8.13-8.24,8.14-11.23.02-22.46-.03-33.69.02-10.49.04-16.89,4.91-19.6,14.95-8.66,32.1-17.26,64.22-25.91,96.33-2.08,7.7-6.63,10.55-14.49,9.19-14.23-2.46-23.45-13.46-23.57-28.44-.12-15.22-.02-30.44-.03-45.66,0-8.61-2.47-11.04-11.18-11.04-21.21,0-42.42.01-63.63-.03-1.59,0-3.29-.07-4.76-.6-2.52-.9-4.04-3.18-3.2-5.58.67-1.91,2.66-3.52,4.4-4.81.82-.61,2.42-.2,3.67-.2,20.09,0,40.18-.05,60.26.03,4.69.02,9.37.44,14.25.68.38-3.33.33-6.86-1.74-10.55-14.7-26.14,3.63-58.71,33.57-59.89,4.57-.18,7.04,1.56,7.25,5.1.21,3.55-1.99,5.89-6.51,6.02-22.92.7-36.64,27.12-22.59,46.71,1.17,1.63,1.38,4.22,1.39,6.37.09,24.33.03,48.65.07,72.98.02,10.32,5.83,17.01,15.73,17.82,1.88-6.95,3.8-13.98,5.69-21.03,6.8-25.38,13.56-50.78,20.38-76.15,4-14.86,14.93-23.31,30.28-23.42,8.86-.06,17.72-.01,26.58-.01,1.34,0,2.68,0,4.21,0V27.93c-1.42,0-2.84,0-4.27,0-15.35,0-30.69-.1-46.04.04-9.18.08-17.42-2.32-24.87-7.74-6.78-4.94-14.4-8.19-22.82-8.47-10.94-.37-21.9-.09-32.79-.09.17,3.65.71,7.39.42,11.06-.29,3.64-1.4,7.22-2.3,11.55,5.8,4.53,8.02,11.34,7.95,19.46-.07,8.23-2.78,14.81-9.68,19.77,3.58,5,4.26,10.57,4.16,16.4-.21,13.37-8.67,21.99-22.11,22.03-26.45.08-52.9.02-79.35.03-1.25,0-2.5-.03-3.74.03-6.81.32-11.86,5.43-11.87,11.97,0,6.46,5.12,11.82,11.85,12.06,5.48.2,10.98.02,16.47.06,4.4.04,6.82,2.13,6.75,5.69-.07,3.37-2.51,5.53-6.64,5.49-6.85-.06-13.79.34-20.53-.61-11.69-1.65-19.88-12.49-19.05-24.02.88-12.14,10.02-21.36,22.03-21.79,8.07-.29,16.17-.05,24.43-.05-2.87-12.26-3.76-23.69,7.71-32.36Zm32.29,32.29c6.6,0,13.2.08,19.8-.02,7.62-.12,10.75-3.84,10.72-12.49-.03-7.93-3.37-11.63-10.76-11.67-13.2-.07-26.4-.07-39.59,0-7.38.04-10.68,3.75-10.71,11.72-.03,8.65,3.09,12.33,10.76,12.45,6.6.1,13.2.02,19.8.02Zm5.4-35.44h0c6.85-.01,13.7.09,20.54-.04,6.39-.12,9.87-3.73,9.99-10.04.03-1.49.05-2.99,0-4.48-.21-5.58-3.79-9.45-9.42-9.51-14.07-.15-28.14-.15-42.21.01-5.47.07-8.92,3.86-9.18,9.32-.07,1.37-.05,2.74-.03,4.11.1,7.12,3.41,10.53,10.52,10.62,6.6.09,13.2.02,19.8.02Zm5.73-35.38c4.24,0,8.49.08,12.73-.02,3.91-.09,6.23-2.31,6.59-6.22.16-1.73.12-3.49.04-5.24-.21-4.71-2.53-7.07-7.32-7.13-7.86-.1-15.72-.09-23.58,0-5.18.05-7.4,2.38-7.55,7.64-.04,1.37-.06,2.75.01,4.12.26,4.64,2.46,6.78,7.1,6.85,3.99.06,7.98.01,11.98,0Z"/><path class="cls-1" d="m148.18,191.13c10.98,11.7,22.6,21.51,38.6,24.09,9.51,1.54,18.27-1.27,26.49-5.93,8.21-4.65,15.18-10.81,21.83-18.15-3.4-3.2-6.6-6.3-9.89-9.28-3.33-3.02-4.02-6.46-1.67-9.06,2.3-2.54,5.64-2.55,8.89.5,4.62,4.35,9.04,8.93,13.4,13.54,2.46,2.59,2.76,5.67.42,8.47-11.45,13.75-24.71,25.06-42.4,29.87-16.55,4.5-31.5-.1-44.81-9.77-7.6-5.52-14.25-12.4-20.98-19.02-3.64-3.59-3.41-6.27-.06-10.17,12.01-13.98,25.82-25.28,44.35-29.44,7.98-1.79,15.87-1.1,23.63,1.26,3.19.97,4.76,3.78,4.06,6.64-.76,3.09-3.66,5.12-6.87,4.15-16.98-5.12-30.74,1.56-43.49,11.75-3.96,3.17-7.51,6.86-11.49,10.53Z"/><path class="cls-1" d="m191.85,175.71c8.68.07,15.62,7.14,15.53,15.81-.09,8.59-7.35,15.7-15.88,15.57-8.61-.14-15.61-7.31-15.53-15.92.08-8.64,7.15-15.52,15.88-15.45Zm-.3,11.21c-2.72.31-4.35,1.82-4.28,4.6.07,2.6,1.77,4.19,4.3,4.23,2.72.03,4.5-1.61,4.5-4.39,0-2.76-1.7-4.24-4.53-4.43Z"/></svg>