<?xml version="1.0" encoding="UTF-8"?><svg id="Calque_1" xmlns="http://www.w3.org/2000/svg" viewBox="0 0 218.2 384"><defs><style>.cls-1{fill:#fff;}</style></defs><path class="cls-1" d="m109.87,0c11.13,2.8,18.63,9.97,24.04,19.78.64,1.15,2.16,1.98,3.45,2.59,26.21,12.48,25.75,46.66,12.58,61.53-1.8,2.03-3.81,4.23-6.19,5.31-4.02,1.82-5.4,4.61-6.03,8.79-1.47,9.78-4.38,19.02-12.89,25.29-.29.21-.6.51-.72.83-.84,2.24,4.24,11.26,6.66,11.71,23.13,4.32,46.25,8.67,69.41,12.86,6.21,1.12,10.34,4.61,13.16,9.98,4.5,8.59,5.23,17.83,4.74,27.31-1.34,26.11-5.61,51.85-9.75,77.61-2.26,14.04-4.84,28.04-6.81,42.12-1.64,11.71.33,23.04,4.44,34.16,3.02,8.16,5.49,16.56,7.55,25.01,2.48,10.21,0,14.74-9.29,19.11H44.74c-.6-.37-1.18-.8-1.81-1.11-7.11-3.52-9.98-10.82-6.34-17.92,4.77-9.32,9.24-18.97,15.36-27.38,13.55-18.62,16.02-39.35,14.04-61.3-.22-2.48-.65-4.93-1.45-7.49-5.9,6.9-13,11.25-21.33,13.61-6.46,1.82-12.97,2.54-19.51.34-4.47-1.5-7.93-4.19-9.58-8.77C7.69,256.11,1.88,238.09.21,219c-.95-10.83,1.23-20.6,9.83-27.76,10.82-9.01,22-17.6,33.14-26.21,6.61-5.11,13.38-10.02,20.22-14.82,2.62-1.84,3.36-3.62,2.43-6.83-2.35-8.13-4.23-16.39-6.19-24.17-5.18-1.34-10.16-2.12-14.75-3.91-13.25-5.18-19.61-15.77-20.96-29.4-.58-5.89.36-11.93.45-17.91.06-3.82.16-7.68-.31-11.45-2.88-22.71,11.15-43.21,33.04-47.89,6.45-1.38,12.87-1.03,19.23.83,1.19.35,2.75.55,3.8.08C86.85,6.5,93.48,3.21,100.14,0c3.24,0,6.49,0,9.73,0Zm-32.49,273.39c-.14.53-.27.77-.26,1,.06,1,.18,1.99.25,2.99,1.82,23.55-1.57,45.72-15.6,65.62-5.43,7.71-9.53,16.37-14.06,24.69-2.41,4.42-1.91,5.06,3.14,5.06,25.08,0,50.15,0,75.23,0,24.33,0,48.66-.04,72.98.05,3.29.01,4.74-.86,3.74-4.35-2.1-7.3-3.46-14.9-6.31-21.88-6.05-14.8-7.58-29.98-5.29-45.58,3.51-23.96,7.41-47.87,11.09-71.8.82-5.36,1.41-10.76,2.09-16.03-8.96-2.7-12.83-5.66-16.59-13.51-1.92-4.02-3.45-8.31-4.49-12.64-2.33-9.73-2.38-19.48,1.49-29.08-.99-.21-1.59-.34-2.2-.46-19.19-3.78-38.37-7.59-57.58-11.29-3.82-.73-6.26-2.56-7.44-6.37-1.06-3.45-2.45-6.81-3.92-10.11-.4-.91-1.51-1.82-2.47-2.11-6.16-1.84-12.44-3.29-18.54-5.31-4.31-1.43-5.54-4.32-4.06-7.76,1.39-3.23,4.13-4.04,8.13-2.68,4.35,1.48,8.7,3.11,13.18,4.03,6.05,1.24,10.63-1.29,12.89-7.02,6.92-17.54,7.38-35.22.82-53.02-1.24-3.37-3.49-5.33-6.83-6.29-7.98-2.3-15.95-4.64-23.35-6.8-6.44,5.44-13,10.94-19.53,16.49-2.57,2.18-5.14,4.37-7.56,6.7-3.67,3.53-5.11,7.63-3.86,12.88,5.27,22.22,10.22,44.51,15.51,66.72,1.01,4.23.23,7.26-3.21,9.82-7.3,5.44-14.58,10.92-21.81,16.46-11.19,8.56-22.37,17.15-33.5,25.79-6.74,5.23-9.45,12.32-7.92,20.55,2.23,11.99,5.04,23.88,7.63,35.8.19.88.67,1.7,1.12,2.8,8.86-7.66,19-10.82,29.63-10.83,1.77-9.06-.87-16.89-4.56-24.5-.38-.78-.67-1.62-.89-2.46-.74-2.87.45-4.9,2.99-6.11,2.67-1.28,5.67-1.16,6.85,1.64,3.7,8.75,9.36,16.98,8,27.24-1.08,8.2,2.68,13.49,9.79,17.11,16.12,8.2,37.95.82,46.06-15.72,2.56-5.23,5.81-6.03,10.37-2.61,15.53,11.65,31.79,14.14,49.12,4.02,3.34-1.95,6.33-1.12,8.01,1.88,1.6,2.86.84,5.79-2.22,7.69-10.92,6.78-22.83,9.77-35.43,7.08-7.66-1.64-14.96-4.96-22.7-7.62-11.62,15.6-28.29,21.06-47.95,19.85Zm-20.78-166.9c-1.11-5.16-2.21-10.02-3.19-14.9-.9-4.52-1.88-9.05-2.45-13.62-1.37-11.01,4.72-18.41,12.5-24.84,5.47-4.53,11.25-8.71,16.5-13.48,5.04-4.58,4.83-4.89,1.19-10.48-1.29-1.98-2.46-4.07-3.93-5.91-.88-1.1-2.1-2.18-3.39-2.64-5.29-1.86-10.7-2.09-16.16-.57-15.38,4.28-24.43,18.85-22.4,35.6.59,4.88.49,9.86.43,14.79-.05,4.96-.99,9.96-.58,14.86,1.02,12.22,9.96,20.9,21.48,21.18Zm83.65-27.78c1.82-2.91,3.68-5.13,4.73-7.68,3.31-8.04,3.69-16.44.43-24.43-1.62-3.97-4.4-8.7-7.93-10.39-7.74-3.69-12.46-9.48-17.15-16.26-7.85-11.35-23.07-11.61-32.24-1.7,4.02,11.63,13.23,16.36,24.27,18.64.85.18,1.68.51,2.53.62,11.82,1.63,18.72,8.53,21.2,20.02,1.44,6.65,2.64,13.36,4.17,21.18Zm64.23,123.36c.37-.27.75-.54,1.12-.81.47-7.47,1.54-14.96,1.19-22.39-.24-5.19-2.18-10.38-3.93-15.37-.52-1.48-3.02-3.27-4.47-3.15-1.4.12-2.66,2.47-3.89,3.92-.38.44-.51,1.14-.63,1.75-2.19,11.13-.28,21.62,5.34,31.36,1.12,1.93,3.47,3.15,5.25,4.7ZM31.96,273.63c8.02-1.33,15.05-3.52,20.61-9.01,1.26-1.25,1.69-3.35,2.5-5.06-1.66-.62-3.31-1.7-5-1.77-7.52-.33-14.64,1.33-20.66,5.98-1.97,1.53-3.13,4.12-4.66,6.22,2.4,1.21,4.81,2.43,7.21,3.64Z"/><path class="cls-1" d="m127.79,333.76c3.26-.06,5.95,2.52,6.02,5.78.07,3.19-2.6,6-5.79,6.07-3.12.07-5.99-2.69-6.06-5.84-.07-3.19,2.6-5.95,5.82-6.01Z"/><path class="cls-1" d="m168.25,228.79c.01,3.19-2.18,5.53-5.25,5.6-3.23.08-5.53-2.33-5.46-5.73.07-3.27,2.2-5.39,5.39-5.35,3.17.04,5.31,2.24,5.32,5.48Z"/><path class="cls-1" d="m79.28,248.67c-3.1.05-5.33-2.19-5.41-5.41-.08-3.32,1.91-5.56,5.06-5.68,3.37-.14,5.6,2.06,5.59,5.52-.01,3.25-2.15,5.53-5.24,5.57Z"/></svg>